%
M48
M72
T01C0.0157
T02C0.0236
T03C0.0394
%
T01
X5774Y2400
X6624Y2275
X6249Y1775
X7899Y2675
X5374Y3600
X8149Y4250
X10499Y3800
X11499Y4200
X11699Y3650
X12099Y3650
X12024Y3175
X13824Y3675
X15399Y4300
X14724Y5850
X13899Y6425
X13249Y5975
X15724Y6350
X13199Y7125
X13899Y8000
X13574Y8250
X14574Y8500
X15149Y8075
X15824Y7950
X10249Y7150
X9874Y7150
X7474Y8100
X5849Y8475
X4974Y7800
X5124Y7200
X5349Y6150
X3174Y5575
X2774Y5575
X13724Y2100
X13824Y1575
X15024Y1575
X19149Y3250
X19524Y3250
T02
X4774Y1750
X3124Y2375
X4024Y4675
X14449Y3100
X16424Y1875
T03
X19249Y1425
X19249Y2425
X19224Y6150
X19224Y7150
X19224Y8150
M30
