G75*
G70*
%OFA0B0*%
%FSLAX24Y24*%
%IPPOS*%
%LPD*%
%AMOC8*
5,1,8,0,0,1.08239X$1,22.5*
%
%ADD10C,0.0000*%
%ADD11C,0.0594*%
%ADD12C,0.0277*%
%ADD13C,0.0100*%
%ADD14C,0.0356*%
%ADD15C,0.0560*%
%ADD16C,0.0400*%
D10*
X001043Y000625D02*
X001043Y008833D01*
X020042Y008833D01*
X020042Y000625D01*
X001043Y000625D01*
D11*
X018953Y001425D02*
X019546Y001425D01*
X019546Y002425D02*
X018953Y002425D01*
X018928Y006150D02*
X019521Y006150D01*
X019521Y007150D02*
X018928Y007150D01*
X018928Y008150D02*
X019521Y008150D01*
D12*
X015824Y007950D03*
X015149Y008075D03*
X014574Y008500D03*
X013574Y008250D03*
X013899Y008000D03*
X013199Y007125D03*
X013899Y006425D03*
X013249Y005975D03*
X014724Y005850D03*
X015724Y006350D03*
X015399Y004300D03*
X013824Y003675D03*
X012099Y003650D03*
X011699Y003650D03*
X012024Y003175D03*
X010499Y003800D03*
X011499Y004200D03*
X008149Y004250D03*
X005374Y003600D03*
X007899Y002675D03*
X006624Y002275D03*
X005774Y002400D03*
X006249Y001775D03*
X013724Y002100D03*
X013824Y001575D03*
X015024Y001575D03*
X019149Y003250D03*
X019524Y003250D03*
X010249Y007150D03*
X009874Y007150D03*
X007474Y008100D03*
X005849Y008475D03*
X004974Y007800D03*
X005124Y007200D03*
X005349Y006150D03*
X003174Y005575D03*
X002774Y005575D03*
D13*
X003803Y005006D02*
X003947Y005065D01*
X004102Y005065D01*
X004245Y005006D01*
X004355Y004896D01*
X004414Y004753D01*
X004414Y001942D01*
X004553Y002081D01*
X004697Y002140D01*
X004852Y002140D01*
X004995Y002081D01*
X005105Y001971D01*
X005164Y001828D01*
X005164Y001672D01*
X005105Y001529D01*
X004991Y001415D01*
X015413Y001415D01*
X016203Y002206D01*
X016347Y002265D01*
X016502Y002265D01*
X016645Y002206D01*
X016755Y002096D01*
X016814Y001953D01*
X016814Y001797D01*
X016755Y001654D01*
X015905Y000804D01*
X015876Y000775D01*
X019892Y000775D01*
X019892Y001141D01*
X019887Y001134D01*
X019837Y001084D01*
X019780Y001043D01*
X019718Y001011D01*
X019651Y000989D01*
X019581Y000978D01*
X019298Y000978D01*
X019298Y001377D01*
X019201Y001377D01*
X018508Y001377D01*
X018517Y001320D01*
X018538Y001253D01*
X018570Y001191D01*
X018612Y001134D01*
X018661Y001084D01*
X018718Y001043D01*
X018781Y001011D01*
X018848Y000989D01*
X018917Y000978D01*
X019201Y000978D01*
X019201Y001377D01*
X019201Y001473D01*
X018508Y001473D01*
X018517Y001530D01*
X018538Y001597D01*
X018570Y001659D01*
X018612Y001716D01*
X018661Y001766D01*
X018718Y001807D01*
X018781Y001839D01*
X018848Y001861D01*
X018917Y001872D01*
X019201Y001872D01*
X019201Y001473D01*
X019298Y001473D01*
X019298Y001872D01*
X019581Y001872D01*
X019651Y001861D01*
X019718Y001839D01*
X019780Y001807D01*
X019837Y001766D01*
X019887Y001716D01*
X019892Y001709D01*
X019892Y002198D01*
X019891Y002195D01*
X019777Y002080D01*
X019627Y002018D01*
X018872Y002018D01*
X018722Y002080D01*
X018608Y002195D01*
X018546Y002344D01*
X018546Y002506D01*
X018608Y002655D01*
X018722Y002770D01*
X018872Y002832D01*
X019627Y002832D01*
X019777Y002770D01*
X019891Y002655D01*
X019892Y002652D01*
X019892Y005901D01*
X019862Y005859D01*
X019812Y005809D01*
X019755Y005768D01*
X019693Y005736D01*
X019626Y005714D01*
X019556Y005703D01*
X019273Y005703D01*
X019273Y006102D01*
X019176Y006102D01*
X018483Y006102D01*
X018492Y006045D01*
X018513Y005978D01*
X018545Y005916D01*
X018587Y005859D01*
X018636Y005809D01*
X018693Y005768D01*
X018756Y005736D01*
X018823Y005714D01*
X018892Y005703D01*
X019176Y005703D01*
X019176Y006102D01*
X019176Y006198D01*
X018483Y006198D01*
X018492Y006255D01*
X018513Y006322D01*
X018545Y006384D01*
X018587Y006441D01*
X018636Y006491D01*
X018693Y006532D01*
X018756Y006564D01*
X018823Y006586D01*
X018892Y006597D01*
X019176Y006597D01*
X019176Y006198D01*
X019273Y006198D01*
X019273Y006597D01*
X019556Y006597D01*
X019626Y006586D01*
X019693Y006564D01*
X019755Y006532D01*
X019812Y006491D01*
X019862Y006441D01*
X019892Y006399D01*
X019892Y006983D01*
X019866Y006920D01*
X019752Y006805D01*
X019602Y006743D01*
X018847Y006743D01*
X018697Y006805D01*
X018583Y006920D01*
X018521Y007069D01*
X018521Y007231D01*
X018583Y007380D01*
X018697Y007495D01*
X018847Y007557D01*
X019602Y007557D01*
X019752Y007495D01*
X019866Y007380D01*
X019892Y007317D01*
X019892Y007983D01*
X019866Y007920D01*
X019752Y007805D01*
X019602Y007743D01*
X018847Y007743D01*
X018697Y007805D01*
X018583Y007920D01*
X018521Y008069D01*
X015398Y008069D01*
X015398Y008026D02*
X015398Y008124D01*
X015360Y008216D01*
X015290Y008286D01*
X015199Y008324D01*
X015127Y008324D01*
X015041Y008410D01*
X013766Y008410D01*
X013715Y008461D01*
X013624Y008499D01*
X013525Y008499D01*
X013433Y008461D01*
X013363Y008391D01*
X013326Y008299D01*
X013326Y008201D01*
X013363Y008109D01*
X013433Y008039D01*
X013525Y008001D01*
X013624Y008001D01*
X013715Y008039D01*
X013766Y008090D01*
X014901Y008090D01*
X014901Y008026D01*
X014938Y007934D01*
X015008Y007864D01*
X015100Y007826D01*
X015199Y007826D01*
X015290Y007864D01*
X015360Y007934D01*
X015398Y008026D01*
X015375Y007971D02*
X018561Y007971D01*
X018521Y008069D02*
X018521Y008231D01*
X018583Y008380D01*
X018697Y008495D01*
X018847Y008557D01*
X019602Y008557D01*
X019752Y008495D01*
X019866Y008380D01*
X019892Y008317D01*
X019892Y008683D01*
X001193Y008683D01*
X001193Y000775D01*
X004198Y000775D01*
X004053Y000919D01*
X003944Y001029D01*
X003694Y001279D01*
X003634Y001422D01*
X003634Y004753D01*
X003694Y004896D01*
X003803Y005006D01*
X003827Y005016D02*
X001193Y005016D01*
X001193Y005114D02*
X019892Y005114D01*
X019892Y005016D02*
X004221Y005016D01*
X004334Y004917D02*
X019892Y004917D01*
X019892Y004819D02*
X004387Y004819D01*
X004414Y004720D02*
X019892Y004720D01*
X019892Y004622D02*
X004414Y004622D01*
X004414Y004523D02*
X019892Y004523D01*
X019892Y004425D02*
X004414Y004425D01*
X004414Y004326D02*
X019892Y004326D01*
X019892Y004228D02*
X004414Y004228D01*
X004414Y004129D02*
X019892Y004129D01*
X019892Y004031D02*
X004414Y004031D01*
X004414Y003932D02*
X011570Y003932D01*
X011524Y003913D02*
X011437Y003826D01*
X011389Y003712D01*
X011389Y003588D01*
X011437Y003474D01*
X011524Y003387D01*
X011638Y003340D01*
X011838Y003340D01*
X011813Y003316D01*
X011776Y003224D01*
X011776Y003126D01*
X011813Y003034D01*
X011883Y002964D01*
X011975Y002926D01*
X012074Y002926D01*
X012165Y002964D01*
X012216Y003015D01*
X012583Y003015D01*
X013476Y002122D01*
X013476Y002051D01*
X013513Y001959D01*
X013583Y001889D01*
X013675Y001851D01*
X013774Y001851D01*
X013865Y001889D01*
X013935Y001959D01*
X013973Y002051D01*
X013973Y002149D01*
X013935Y002241D01*
X013865Y002311D01*
X013774Y002349D01*
X013702Y002349D01*
X012834Y003216D01*
X012834Y003241D01*
X012741Y003335D01*
X012216Y003335D01*
X012211Y003340D01*
X012971Y003340D01*
X013387Y002924D01*
X013474Y002837D01*
X013588Y002790D01*
X014511Y002790D01*
X014625Y002837D01*
X014712Y002924D01*
X014759Y003038D01*
X014759Y003162D01*
X014712Y003276D01*
X014625Y003363D01*
X014511Y003410D01*
X013778Y003410D01*
X013275Y003913D01*
X013161Y003960D01*
X011638Y003960D01*
X011524Y003913D01*
X011444Y003834D02*
X004414Y003834D01*
X004414Y003735D02*
X011399Y003735D01*
X011389Y003637D02*
X004414Y003637D01*
X004414Y003538D02*
X011410Y003538D01*
X011471Y003440D02*
X004414Y003440D01*
X004414Y003341D02*
X011635Y003341D01*
X011783Y003243D02*
X004414Y003243D01*
X004414Y003144D02*
X011776Y003144D01*
X011809Y003046D02*
X004414Y003046D01*
X004414Y002947D02*
X011925Y002947D01*
X012124Y002947D02*
X012651Y002947D01*
X012750Y002849D02*
X004414Y002849D01*
X004414Y002750D02*
X012848Y002750D01*
X012947Y002651D02*
X004414Y002651D01*
X004414Y002553D02*
X013045Y002553D01*
X013144Y002454D02*
X004414Y002454D01*
X004414Y002356D02*
X013242Y002356D01*
X013341Y002257D02*
X004414Y002257D01*
X004414Y002159D02*
X013439Y002159D01*
X013476Y002060D02*
X005015Y002060D01*
X005109Y001962D02*
X013512Y001962D01*
X013645Y001863D02*
X005149Y001863D01*
X005164Y001765D02*
X015763Y001765D01*
X015861Y001863D02*
X013803Y001863D01*
X013936Y001962D02*
X015960Y001962D01*
X016058Y002060D02*
X013973Y002060D01*
X013969Y002159D02*
X016157Y002159D01*
X016329Y002257D02*
X013919Y002257D01*
X013695Y002356D02*
X018546Y002356D01*
X018546Y002454D02*
X013596Y002454D01*
X013498Y002553D02*
X018565Y002553D01*
X018606Y002651D02*
X013399Y002651D01*
X013301Y002750D02*
X018702Y002750D01*
X018582Y002257D02*
X016520Y002257D01*
X016692Y002159D02*
X018643Y002159D01*
X018769Y002060D02*
X016770Y002060D01*
X016810Y001962D02*
X019892Y001962D01*
X019892Y002060D02*
X019729Y002060D01*
X019856Y002159D02*
X019892Y002159D01*
X019892Y001863D02*
X019634Y001863D01*
X019838Y001765D02*
X019892Y001765D01*
X019298Y001765D02*
X019201Y001765D01*
X019201Y001863D02*
X019298Y001863D01*
X018865Y001863D02*
X016814Y001863D01*
X016801Y001765D02*
X018661Y001765D01*
X018576Y001666D02*
X016760Y001666D01*
X016669Y001568D02*
X018529Y001568D01*
X018509Y001371D02*
X016472Y001371D01*
X016570Y001469D02*
X019201Y001469D01*
X019201Y001371D02*
X019298Y001371D01*
X019298Y001272D02*
X019201Y001272D01*
X019201Y001174D02*
X019298Y001174D01*
X019298Y001075D02*
X019201Y001075D01*
X018673Y001075D02*
X016176Y001075D01*
X016078Y000977D02*
X019892Y000977D01*
X019892Y001075D02*
X019825Y001075D01*
X019892Y000878D02*
X015979Y000878D01*
X015881Y000780D02*
X019892Y000780D01*
X018583Y001174D02*
X016275Y001174D01*
X016373Y001272D02*
X018532Y001272D01*
X019201Y001568D02*
X019298Y001568D01*
X019298Y001666D02*
X019201Y001666D01*
X019797Y002750D02*
X019892Y002750D01*
X019892Y002849D02*
X014636Y002849D01*
X014722Y002947D02*
X019892Y002947D01*
X019892Y003046D02*
X014759Y003046D01*
X014759Y003144D02*
X019892Y003144D01*
X019892Y003243D02*
X014726Y003243D01*
X014647Y003341D02*
X019892Y003341D01*
X019892Y003440D02*
X013748Y003440D01*
X013650Y003538D02*
X019892Y003538D01*
X019892Y003637D02*
X013551Y003637D01*
X013453Y003735D02*
X019892Y003735D01*
X019892Y003834D02*
X013354Y003834D01*
X013229Y003932D02*
X019892Y003932D01*
X019892Y005213D02*
X001193Y005213D01*
X001193Y005311D02*
X019892Y005311D01*
X019892Y005410D02*
X001193Y005410D01*
X001193Y005508D02*
X019892Y005508D01*
X019892Y005607D02*
X001193Y005607D01*
X001193Y005705D02*
X018881Y005705D01*
X018644Y005804D02*
X001193Y005804D01*
X001193Y005902D02*
X018555Y005902D01*
X018506Y006001D02*
X001193Y006001D01*
X001193Y006099D02*
X018483Y006099D01*
X018505Y006296D02*
X014115Y006296D01*
X014110Y006284D02*
X014148Y006376D01*
X014148Y006474D01*
X014110Y006566D01*
X014040Y006636D01*
X013949Y006674D01*
X013850Y006674D01*
X013758Y006636D01*
X013688Y006566D01*
X013651Y006474D01*
X013651Y006376D01*
X013688Y006284D01*
X013758Y006214D01*
X013850Y006176D01*
X013949Y006176D01*
X014040Y006214D01*
X014110Y006284D01*
X014148Y006395D02*
X018553Y006395D01*
X018639Y006493D02*
X014140Y006493D01*
X014085Y006592D02*
X018859Y006592D01*
X019176Y006592D02*
X019273Y006592D01*
X019273Y006493D02*
X019176Y006493D01*
X019176Y006395D02*
X019273Y006395D01*
X019273Y006296D02*
X019176Y006296D01*
X019176Y006198D02*
X014000Y006198D01*
X013799Y006198D02*
X001193Y006198D01*
X001193Y006296D02*
X013684Y006296D01*
X013651Y006395D02*
X001193Y006395D01*
X001193Y006493D02*
X013658Y006493D01*
X013714Y006592D02*
X001193Y006592D01*
X001193Y006690D02*
X009433Y006690D01*
X009458Y006665D02*
X010016Y006665D01*
X010109Y006759D01*
X010252Y006901D01*
X010299Y006901D01*
X010390Y006939D01*
X010460Y007009D01*
X010498Y007101D01*
X010498Y007199D01*
X010460Y007291D01*
X010390Y007361D01*
X010299Y007399D01*
X010200Y007399D01*
X010108Y007361D01*
X010062Y007314D01*
X010015Y007361D01*
X009924Y007399D01*
X009852Y007399D01*
X009359Y007891D01*
X009359Y007891D01*
X009266Y007985D01*
X005141Y007985D01*
X005115Y008011D01*
X005024Y008049D01*
X004925Y008049D01*
X004833Y008011D01*
X004763Y007941D01*
X004726Y007849D01*
X004726Y007751D01*
X004763Y007659D01*
X004833Y007589D01*
X004925Y007551D01*
X005024Y007551D01*
X005115Y007589D01*
X005185Y007659D01*
X005188Y007665D01*
X009133Y007665D01*
X009626Y007172D01*
X009626Y007101D01*
X009663Y007009D01*
X009688Y006985D01*
X009591Y006985D01*
X009216Y007360D01*
X005316Y007360D01*
X005265Y007411D01*
X005174Y007449D01*
X005075Y007449D01*
X004983Y007411D01*
X004913Y007341D01*
X004876Y007249D01*
X004876Y007151D01*
X004913Y007059D01*
X004983Y006989D01*
X005075Y006951D01*
X005174Y006951D01*
X005265Y006989D01*
X005316Y007040D01*
X009083Y007040D01*
X009458Y006665D01*
X009335Y006789D02*
X001193Y006789D01*
X001193Y006887D02*
X009236Y006887D01*
X009138Y006986D02*
X005257Y006986D01*
X004992Y006986D02*
X001193Y006986D01*
X001193Y007084D02*
X004903Y007084D01*
X004876Y007183D02*
X001193Y007183D01*
X001193Y007281D02*
X004889Y007281D01*
X004952Y007380D02*
X001193Y007380D01*
X001193Y007478D02*
X009320Y007478D01*
X009222Y007577D02*
X005085Y007577D01*
X004864Y007577D02*
X001193Y007577D01*
X001193Y007675D02*
X004757Y007675D01*
X004726Y007774D02*
X001193Y007774D01*
X001193Y007872D02*
X004735Y007872D01*
X004793Y007971D02*
X001193Y007971D01*
X001193Y008069D02*
X013404Y008069D01*
X013339Y008168D02*
X001193Y008168D01*
X001193Y008266D02*
X013326Y008266D01*
X013353Y008365D02*
X001193Y008365D01*
X001193Y008463D02*
X013439Y008463D01*
X013710Y008463D02*
X018665Y008463D01*
X018576Y008365D02*
X015086Y008365D01*
X014974Y008250D02*
X013574Y008250D01*
X013745Y008069D02*
X014901Y008069D01*
X014923Y007971D02*
X009280Y007971D01*
X009379Y007872D02*
X015001Y007872D01*
X015298Y007872D02*
X018630Y007872D01*
X018773Y007774D02*
X009477Y007774D01*
X009576Y007675D02*
X019892Y007675D01*
X019892Y007577D02*
X009674Y007577D01*
X009773Y007478D02*
X018680Y007478D01*
X018582Y007380D02*
X010345Y007380D01*
X010464Y007281D02*
X018541Y007281D01*
X018521Y007183D02*
X010498Y007183D01*
X010491Y007084D02*
X018521Y007084D01*
X018555Y006986D02*
X010437Y006986D01*
X010238Y006887D02*
X018615Y006887D01*
X018737Y006789D02*
X010139Y006789D01*
X010041Y006690D02*
X019892Y006690D01*
X019892Y006592D02*
X019590Y006592D01*
X019809Y006493D02*
X019892Y006493D01*
X019892Y006789D02*
X019712Y006789D01*
X019834Y006887D02*
X019892Y006887D01*
X019867Y007380D02*
X019892Y007380D01*
X019892Y007478D02*
X019769Y007478D01*
X019675Y007774D02*
X019892Y007774D01*
X019892Y007872D02*
X019819Y007872D01*
X019887Y007971D02*
X019892Y007971D01*
X019873Y008365D02*
X019892Y008365D01*
X019892Y008463D02*
X019784Y008463D01*
X019892Y008562D02*
X001193Y008562D01*
X001193Y008660D02*
X019892Y008660D01*
X018535Y008266D02*
X015310Y008266D01*
X015380Y008168D02*
X018521Y008168D01*
X015149Y008075D02*
X014974Y008250D01*
X010249Y007150D02*
X010249Y007125D01*
X009949Y006825D01*
X009524Y006825D01*
X009149Y007200D01*
X005124Y007200D01*
X005297Y007380D02*
X009419Y007380D01*
X009517Y007281D02*
X009295Y007281D01*
X009393Y007183D02*
X009616Y007183D01*
X009632Y007084D02*
X009492Y007084D01*
X009590Y006986D02*
X009687Y006986D01*
X009874Y007150D02*
X009199Y007825D01*
X004999Y007825D01*
X004974Y007800D01*
X009970Y007380D02*
X010153Y007380D01*
X003715Y004917D02*
X001193Y004917D01*
X001193Y004819D02*
X003662Y004819D01*
X003634Y004720D02*
X001193Y004720D01*
X001193Y004622D02*
X003634Y004622D01*
X003634Y004523D02*
X001193Y004523D01*
X001193Y004425D02*
X003634Y004425D01*
X003634Y004326D02*
X001193Y004326D01*
X001193Y004228D02*
X003634Y004228D01*
X003634Y004129D02*
X001193Y004129D01*
X001193Y004031D02*
X003634Y004031D01*
X003634Y003932D02*
X001193Y003932D01*
X001193Y003834D02*
X003634Y003834D01*
X003634Y003735D02*
X001193Y003735D01*
X001193Y003637D02*
X003634Y003637D01*
X003634Y003538D02*
X001193Y003538D01*
X001193Y003440D02*
X003634Y003440D01*
X003634Y003341D02*
X001193Y003341D01*
X001193Y003243D02*
X003634Y003243D01*
X003634Y003144D02*
X001193Y003144D01*
X001193Y003046D02*
X003634Y003046D01*
X003634Y002947D02*
X001193Y002947D01*
X001193Y002849D02*
X003634Y002849D01*
X003634Y002750D02*
X001193Y002750D01*
X001193Y002651D02*
X003634Y002651D01*
X003634Y002553D02*
X001193Y002553D01*
X001193Y002454D02*
X003634Y002454D01*
X003634Y002356D02*
X001193Y002356D01*
X001193Y002257D02*
X003634Y002257D01*
X003634Y002159D02*
X001193Y002159D01*
X001193Y002060D02*
X003634Y002060D01*
X003634Y001962D02*
X001193Y001962D01*
X001193Y001863D02*
X003634Y001863D01*
X003634Y001765D02*
X001193Y001765D01*
X001193Y001666D02*
X003634Y001666D01*
X003634Y001568D02*
X001193Y001568D01*
X001193Y001469D02*
X003634Y001469D01*
X003656Y001371D02*
X001193Y001371D01*
X001193Y001272D02*
X003700Y001272D01*
X003799Y001174D02*
X001193Y001174D01*
X001193Y001075D02*
X003897Y001075D01*
X003996Y000977D02*
X001193Y000977D01*
X001193Y000878D02*
X004094Y000878D01*
X004193Y000780D02*
X001193Y000780D01*
X004414Y001962D02*
X004435Y001962D01*
X004414Y002060D02*
X004533Y002060D01*
X005162Y001666D02*
X015664Y001666D01*
X015566Y001568D02*
X005121Y001568D01*
X005045Y001469D02*
X015467Y001469D01*
X013724Y002100D02*
X012674Y003150D01*
X012674Y003175D01*
X012024Y003175D01*
X012833Y003243D02*
X013068Y003243D01*
X013167Y003144D02*
X012907Y003144D01*
X013005Y003046D02*
X013265Y003046D01*
X013364Y002947D02*
X013104Y002947D01*
X013202Y002849D02*
X013462Y002849D01*
X019176Y005705D02*
X019273Y005705D01*
X019273Y005804D02*
X019176Y005804D01*
X019176Y005902D02*
X019273Y005902D01*
X019273Y006001D02*
X019176Y006001D01*
X019176Y006099D02*
X019273Y006099D01*
X019805Y005804D02*
X019892Y005804D01*
X019892Y005705D02*
X019568Y005705D01*
D14*
X014449Y003100D03*
X016424Y001875D03*
X004774Y001750D03*
X003124Y002375D03*
X004024Y004675D03*
D15*
X004024Y001500D01*
X004274Y001250D01*
X004774Y001750D01*
X004274Y001250D02*
X004499Y001025D01*
X015574Y001025D01*
X016424Y001875D01*
D16*
X014449Y003100D02*
X013649Y003100D01*
X013099Y003650D01*
X011699Y003650D01*
M02*
