G75*
G70*
%OFA0B0*%
%FSLAX24Y24*%
%IPPOS*%
%LPD*%
%AMOC8*
5,1,8,0,0,1.08239X$1,22.5*
%
%ADD10C,0.0000*%
%ADD11R,0.0118X0.0630*%
%ADD12R,0.0630X0.0118*%
%ADD13R,0.0790X0.0590*%
%ADD14R,0.0790X0.1500*%
%ADD15R,0.0394X0.0433*%
%ADD16R,0.0709X0.0630*%
%ADD17R,0.0780X0.0220*%
%ADD18R,0.0433X0.0394*%
%ADD19R,0.2000X0.0700*%
%ADD20R,0.0591X0.0512*%
%ADD21R,0.0394X0.0551*%
%ADD22R,0.0315X0.0315*%
%ADD23R,0.0630X0.0709*%
%ADD24R,0.0600X0.0500*%
%ADD25R,0.0169X0.0110*%
%ADD26R,0.0500X0.1000*%
%ADD27R,0.0660X0.0320*%
D10*
X001043Y000625D02*
X001043Y008833D01*
X020042Y008833D01*
X020042Y000625D01*
X001043Y000625D01*
D11*
X008373Y003295D03*
X008570Y003295D03*
X008767Y003295D03*
X008964Y003295D03*
X009160Y003295D03*
X009357Y003295D03*
X009554Y003295D03*
X009751Y003295D03*
X009948Y003295D03*
X010145Y003295D03*
X010341Y003295D03*
X010538Y003295D03*
X010735Y003295D03*
X010932Y003295D03*
X011129Y003295D03*
X011326Y003295D03*
X011326Y007705D03*
X011129Y007705D03*
X010932Y007705D03*
X010735Y007705D03*
X010538Y007705D03*
X010341Y007705D03*
X010145Y007705D03*
X009948Y007705D03*
X009751Y007705D03*
X009554Y007705D03*
X009357Y007705D03*
X009160Y007705D03*
X008964Y007705D03*
X008767Y007705D03*
X008570Y007705D03*
X008373Y007705D03*
D12*
X007645Y006976D03*
X007645Y006780D03*
X007645Y006583D03*
X007645Y006386D03*
X007645Y006189D03*
X007645Y005992D03*
X007645Y005795D03*
X007645Y005598D03*
X007645Y005402D03*
X007645Y005205D03*
X007645Y005008D03*
X007645Y004811D03*
X007645Y004614D03*
X007645Y004417D03*
X007645Y004220D03*
X007645Y004024D03*
X012054Y004024D03*
X012054Y004220D03*
X012054Y004417D03*
X012054Y004614D03*
X012054Y004811D03*
X012054Y005008D03*
X012054Y005205D03*
X012054Y005402D03*
X012054Y005598D03*
X012054Y005795D03*
X012054Y005992D03*
X012054Y006189D03*
X012054Y006386D03*
X012054Y006583D03*
X012054Y006780D03*
X012054Y006976D03*
D13*
X018564Y005210D03*
X018564Y004310D03*
X018564Y003410D03*
D14*
X016084Y004300D03*
D15*
X015399Y004690D03*
X014909Y004300D03*
X014240Y004300D03*
X013684Y004900D03*
X013015Y004900D03*
X013015Y005475D03*
X013684Y005475D03*
X012874Y006065D03*
X012874Y006735D03*
X013899Y006865D03*
X013899Y007535D03*
X013159Y008275D03*
X012490Y008275D03*
X009584Y008450D03*
X008915Y008450D03*
X004659Y007275D03*
X003990Y007275D03*
X002784Y007525D03*
X002115Y007525D03*
X002115Y008200D03*
X002784Y008200D03*
X003915Y007825D03*
X004584Y007825D03*
X007499Y003335D03*
X007499Y002665D03*
X012515Y003125D03*
X013184Y003125D03*
X014340Y001150D03*
X015009Y001150D03*
X015399Y005360D03*
X016965Y005925D03*
X017634Y005925D03*
X016859Y008475D03*
X016190Y008475D03*
D16*
X019524Y004876D03*
X019524Y003774D03*
D17*
X016404Y006450D03*
X016404Y006950D03*
X016404Y007450D03*
X016404Y007950D03*
X014544Y007950D03*
X014544Y007450D03*
X014544Y006950D03*
X014544Y006450D03*
D18*
X015765Y005925D03*
X016434Y005925D03*
X013159Y007525D03*
X012490Y007525D03*
X014965Y008500D03*
X015634Y008500D03*
X008159Y008450D03*
X007490Y008450D03*
X006849Y008085D03*
X006224Y008360D03*
X006224Y007690D03*
X006849Y007415D03*
X006599Y005960D03*
X006599Y005290D03*
X006599Y004660D03*
X006599Y003990D03*
X006624Y003335D03*
X006624Y002665D03*
X005359Y002425D03*
X004690Y002425D03*
X006715Y001775D03*
X007384Y001775D03*
X012715Y003650D03*
X013384Y003650D03*
X013684Y004150D03*
X013015Y004150D03*
X013140Y001150D03*
X013809Y001150D03*
X015540Y001150D03*
X016209Y001150D03*
D19*
X012474Y001850D03*
X008674Y001850D03*
D20*
X017599Y006451D03*
X017599Y007199D03*
D21*
X017299Y001983D03*
X016925Y001117D03*
X017673Y001117D03*
D22*
X014920Y003775D03*
X014329Y003775D03*
X014204Y004925D03*
X014795Y004925D03*
X014770Y005450D03*
X014179Y005450D03*
D23*
X004226Y001750D03*
X003123Y001750D03*
D24*
X013424Y002550D03*
X016624Y002550D03*
D25*
X017649Y007700D03*
X017649Y007900D03*
D26*
X005831Y006134D03*
X005831Y003594D03*
D27*
X002166Y003406D03*
X002166Y003839D03*
X002166Y004272D03*
X002166Y004705D03*
X002166Y005138D03*
X002166Y005571D03*
X002166Y006004D03*
X002166Y006437D03*
M02*
